<svg width="17" height="13" viewBox="0 0 17 13" fill="none" xmlns="http://www.w3.org/2000/svg">
<path d="M15.8263 5.68443C16.1987 6.17157 16.1987 6.82921 15.8263 7.31557C14.6532 8.84693 11.8388 12 8.55292 12C5.26706 12 2.45263 8.84693 1.27956 7.31557C1.09836 7.08232 1 6.79536 1 6.5C1 6.20464 1.09836 5.91768 1.27956 5.68443C2.45263 4.15307 5.26706 1 8.55292 1C11.8388 1 14.6532 4.15307 15.8263 5.68443V5.68443Z" stroke="black" stroke-linecap="round" stroke-linejoin="round"/>
<path d="M8.55246 8.85735C9.85427 8.85735 10.9096 7.80202 10.9096 6.50021C10.9096 5.1984 9.85427 4.14307 8.55246 4.14307C7.25064 4.14307 6.19531 5.1984 6.19531 6.50021C6.19531 7.80202 7.25064 8.85735 8.55246 8.85735Z" stroke="black" stroke-linecap="round" stroke-linejoin="round"/>
</svg>
