<svg width="18" height="15" viewBox="0 0 18 15" fill="none" xmlns="http://www.w3.org/2000/svg">
<path d="M4.64482 11.6673C3.14575 10.6029 1.9595 9.21844 1.28919 8.34419C1.10175 8.10286 1 7.80598 1 7.50041C1 7.19483 1.10175 6.89796 1.28919 6.65662C2.50225 5.07306 5.41263 1.8125 8.8105 1.8125C10.3348 1.8125 11.7599 2.46819 12.9786 3.33513" stroke="black" stroke-linecap="round" stroke-linejoin="round"/>
<path d="M10.5421 5.78319C10.3165 5.55379 10.0477 5.37134 9.75119 5.24636C9.45469 5.12137 9.13637 5.05633 8.81461 5.05498C8.49284 5.05364 8.174 5.11601 7.87646 5.2385C7.57892 5.361 7.30858 5.54119 7.08103 5.76869C6.85348 5.99618 6.67322 6.26648 6.55066 6.56399C6.42809 6.8615 6.36564 7.18034 6.36692 7.5021C6.36819 7.82387 6.43315 8.14219 6.55807 8.43873C6.68298 8.73526 6.86537 9.00412 7.09471 9.22981M2.31152 14L15.3115 1M7.18652 12.947C7.714 13.104 8.26118 13.185 8.81152 13.1875C12.2094 13.1875 15.1198 9.92694 16.3328 8.34338C16.5202 8.10183 16.6219 7.80476 16.6217 7.49905C16.6216 7.19333 16.5196 6.89637 16.332 6.655C15.9057 6.09884 15.4483 5.56716 14.9621 5.0625" stroke="black" stroke-linecap="round" stroke-linejoin="round"/>
</svg>
