<svg width="38" height="40" viewBox="0 0 38 40" fill="none" xmlns="http://www.w3.org/2000/svg">
<path d="M29.1302 29.3009C27.844 30.5601 28.3893 33.6974 29.1555 36.516L31.1742 35.1825C31.1995 33.8449 31.1633 32.653 31.8241 32.0419C34.839 29.0779 36.7225 25.1529 37.1486 20.9466C37.5747 16.7402 36.5165 12.5173 34.1573 9.00888C31.798 5.50046 28.2862 2.92745 24.2299 1.7353C20.1736 0.543144 15.8281 0.806905 11.9457 2.48092C8.06339 4.15493 4.8886 7.1338 2.97102 10.9018C1.05344 14.6698 0.513792 18.9897 1.4455 23.1137C2.37721 27.2376 4.72163 30.9059 8.07286 33.4836C11.4241 36.0612 15.5712 37.3859 19.7961 37.2282C20.2677 37.2733 20.725 37.4147 21.1397 37.6438C21.5544 37.8729 21.9176 38.1847 22.2068 38.56L24.5542 37.9658C22.9873 35.5003 21.8528 33.2658 19.652 33.3864C16.3234 33.5099 13.0565 32.4657 10.4167 30.4345C7.77685 28.4034 5.93035 25.5131 5.19684 22.264C4.46334 19.015 4.88899 15.6117 6.40012 12.6434C7.91125 9.67511 10.4127 7.32863 13.4715 6.01019C16.5303 4.69175 19.9538 4.48435 23.1493 5.4239C26.3449 6.36345 29.1113 8.3908 30.9697 11.155C32.8281 13.9192 33.6615 17.2461 33.3256 20.56C32.9896 23.8738 31.5056 26.9659 29.1302 29.3009V29.3009Z" stroke="black" stroke-width="1.2" stroke-linecap="round" stroke-linejoin="round"/>
<path d="M13.235 20.47C13.9171 20.47 14.47 19.9171 14.47 19.235C14.47 18.5529 13.9171 18 13.235 18C12.5529 18 12 18.5529 12 19.235C12 19.9171 12.5529 20.47 13.235 20.47Z" stroke="black" stroke-width="1.2" stroke-linecap="round" stroke-linejoin="round"/>
<path d="M19.1647 20.47C19.8468 20.47 20.3997 19.9171 20.3997 19.235C20.3997 18.5529 19.8468 18 19.1647 18C18.4826 18 17.9297 18.5529 17.9297 19.235C17.9297 19.9171 18.4826 20.47 19.1647 20.47Z" stroke="black" stroke-width="1.2" stroke-linecap="round" stroke-linejoin="round"/>
<path d="M25.317 20.47C25.9991 20.47 26.552 19.9171 26.552 19.235C26.552 18.5529 25.9991 18 25.317 18C24.635 18 24.082 18.5529 24.082 19.235C24.082 19.9171 24.635 20.47 25.317 20.47Z" stroke="black" stroke-width="1.2" stroke-linecap="round" stroke-linejoin="round"/>
</svg>
